<mxfile host="Electron" modified="2023-12-16T21:46:40.030Z" agent="Mozilla/5.0 (Windows NT 10.0; Win64; x64) AppleWebKit/537.36 (KHTML, like Gecko) draw.io/22.1.2 Chrome/114.0.5735.289 Electron/25.9.4 Safari/537.36" etag="uI9sI2BjB9xEIdmJQVyI" version="22.1.2" type="device" pages="2">
  <diagram name="Overview" id="xEw9ob6Upyo2c6WsRndd">
    <mxGraphModel dx="1418" dy="820" grid="1" gridSize="10" guides="1" tooltips="1" connect="1" arrows="1" fold="1" page="1" pageScale="1" pageWidth="850" pageHeight="1100" math="0" shadow="0">
      <root>
        <mxCell id="0" />
        <mxCell id="1" parent="0" />
        <mxCell id="iFUfBAqKsZjqk9rrrD3z-1" style="edgeStyle=none;rounded=0;orthogonalLoop=1;jettySize=auto;html=1;entryX=0.5;entryY=0;entryDx=0;entryDy=0;" parent="1" source="ASeF7teEf1thYzwlXOM3-1" target="ASeF7teEf1thYzwlXOM3-2" edge="1">
          <mxGeometry relative="1" as="geometry" />
        </mxCell>
        <mxCell id="ASeF7teEf1thYzwlXOM3-1" value="Xynok Plugin" style="rounded=1;whiteSpace=wrap;html=1;" parent="1" vertex="1">
          <mxGeometry x="400" y="130" width="120" height="60" as="geometry" />
        </mxCell>
        <mxCell id="iFUfBAqKsZjqk9rrrD3z-7" style="edgeStyle=none;rounded=0;orthogonalLoop=1;jettySize=auto;html=1;entryX=0.5;entryY=0;entryDx=0;entryDy=0;" parent="1" source="ASeF7teEf1thYzwlXOM3-2" target="iFUfBAqKsZjqk9rrrD3z-6" edge="1">
          <mxGeometry relative="1" as="geometry" />
        </mxCell>
        <mxCell id="ASeF7teEf1thYzwlXOM3-2" value="Xynok Convention" style="rounded=1;whiteSpace=wrap;html=1;" parent="1" vertex="1">
          <mxGeometry x="400" y="250" width="120" height="60" as="geometry" />
        </mxCell>
        <mxCell id="iFUfBAqKsZjqk9rrrD3z-2" value="" style="endArrow=classic;html=1;rounded=0;exitX=1;exitY=0.5;exitDx=0;exitDy=0;" parent="1" source="iFUfBAqKsZjqk9rrrD3z-5" target="iFUfBAqKsZjqk9rrrD3z-4" edge="1">
          <mxGeometry width="50" height="50" relative="1" as="geometry">
            <mxPoint x="90" y="150" as="sourcePoint" />
            <mxPoint x="180" y="150" as="targetPoint" />
          </mxGeometry>
        </mxCell>
        <mxCell id="iFUfBAqKsZjqk9rrrD3z-3" value="chiều của mũi tên thể hiện cho sự phụ thuộc. Vd:&lt;br&gt;B cần A để chạy" style="text;html=1;strokeColor=none;fillColor=none;align=left;verticalAlign=middle;whiteSpace=wrap;rounded=0;" parent="1" vertex="1">
          <mxGeometry x="60" y="190" width="190" height="30" as="geometry" />
        </mxCell>
        <mxCell id="iFUfBAqKsZjqk9rrrD3z-4" value="B" style="text;html=1;strokeColor=#6c8ebf;fillColor=#dae8fc;align=center;verticalAlign=middle;whiteSpace=wrap;rounded=0;" parent="1" vertex="1">
          <mxGeometry x="190" y="140" width="60" height="30" as="geometry" />
        </mxCell>
        <mxCell id="iFUfBAqKsZjqk9rrrD3z-5" value="A" style="text;html=1;strokeColor=#6c8ebf;fillColor=#dae8fc;align=center;verticalAlign=middle;whiteSpace=wrap;rounded=0;" parent="1" vertex="1">
          <mxGeometry x="50" y="140" width="60" height="30" as="geometry" />
        </mxCell>
        <mxCell id="iFUfBAqKsZjqk9rrrD3z-6" value="Xynok Entity" style="rounded=1;whiteSpace=wrap;html=1;" parent="1" vertex="1">
          <mxGeometry x="400" y="360" width="120" height="60" as="geometry" />
        </mxCell>
      </root>
    </mxGraphModel>
  </diagram>
  <diagram id="884RvkJ8s71kPJWRRo9I" name="XynokEntity">
    <mxGraphModel dx="1418" dy="820" grid="1" gridSize="10" guides="1" tooltips="1" connect="1" arrows="1" fold="1" page="1" pageScale="1" pageWidth="850" pageHeight="1100" math="0" shadow="0">
      <root>
        <mxCell id="0" />
        <mxCell id="1" parent="0" />
        <mxCell id="sqvcQGN_Wg2t4Ckx61ED-3" style="edgeStyle=none;rounded=0;orthogonalLoop=1;jettySize=auto;html=1;entryX=0.5;entryY=0;entryDx=0;entryDy=0;" edge="1" parent="1" source="sqvcQGN_Wg2t4Ckx61ED-1" target="sqvcQGN_Wg2t4Ckx61ED-2">
          <mxGeometry relative="1" as="geometry" />
        </mxCell>
        <mxCell id="sqvcQGN_Wg2t4Ckx61ED-1" value="Source Generator" style="rounded=1;whiteSpace=wrap;html=1;" vertex="1" parent="1">
          <mxGeometry x="220" y="180" width="120" height="60" as="geometry" />
        </mxCell>
        <mxCell id="sqvcQGN_Wg2t4Ckx61ED-5" style="edgeStyle=none;rounded=0;orthogonalLoop=1;jettySize=auto;html=1;entryX=0;entryY=0.5;entryDx=0;entryDy=0;" edge="1" parent="1" source="sqvcQGN_Wg2t4Ckx61ED-2" target="sqvcQGN_Wg2t4Ckx61ED-4">
          <mxGeometry relative="1" as="geometry" />
        </mxCell>
        <mxCell id="sqvcQGN_Wg2t4Ckx61ED-2" value="Enums" style="ellipse;whiteSpace=wrap;html=1;" vertex="1" parent="1">
          <mxGeometry x="50" y="280" width="120" height="80" as="geometry" />
        </mxCell>
        <mxCell id="sqvcQGN_Wg2t4Ckx61ED-4" value="Runtime Code" style="rounded=1;whiteSpace=wrap;html=1;" vertex="1" parent="1">
          <mxGeometry x="230" y="330" width="120" height="60" as="geometry" />
        </mxCell>
        <mxCell id="sqvcQGN_Wg2t4Ckx61ED-14" style="edgeStyle=none;rounded=0;orthogonalLoop=1;jettySize=auto;html=1;entryX=0.5;entryY=0;entryDx=0;entryDy=0;" edge="1" parent="1" source="sqvcQGN_Wg2t4Ckx61ED-6" target="sqvcQGN_Wg2t4Ckx61ED-8">
          <mxGeometry relative="1" as="geometry" />
        </mxCell>
        <mxCell id="sqvcQGN_Wg2t4Ckx61ED-6" value="Entity" style="ellipse;whiteSpace=wrap;html=1;aspect=fixed;" vertex="1" parent="1">
          <mxGeometry x="440" y="330" width="80" height="80" as="geometry" />
        </mxCell>
        <mxCell id="sqvcQGN_Wg2t4Ckx61ED-11" style="edgeStyle=none;rounded=0;orthogonalLoop=1;jettySize=auto;html=1;entryX=0.5;entryY=0;entryDx=0;entryDy=0;" edge="1" parent="1" source="sqvcQGN_Wg2t4Ckx61ED-7" target="sqvcQGN_Wg2t4Ckx61ED-9">
          <mxGeometry relative="1" as="geometry" />
        </mxCell>
        <mxCell id="sqvcQGN_Wg2t4Ckx61ED-16" style="edgeStyle=none;rounded=0;orthogonalLoop=1;jettySize=auto;html=1;entryX=0;entryY=0.5;entryDx=0;entryDy=0;" edge="1" parent="1" source="sqvcQGN_Wg2t4Ckx61ED-7" target="sqvcQGN_Wg2t4Ckx61ED-8">
          <mxGeometry relative="1" as="geometry" />
        </mxCell>
        <mxCell id="sqvcQGN_Wg2t4Ckx61ED-7" value="Data" style="ellipse;whiteSpace=wrap;html=1;aspect=fixed;" vertex="1" parent="1">
          <mxGeometry x="340" y="450" width="80" height="80" as="geometry" />
        </mxCell>
        <mxCell id="sqvcQGN_Wg2t4Ckx61ED-8" value="Ability" style="ellipse;whiteSpace=wrap;html=1;aspect=fixed;" vertex="1" parent="1">
          <mxGeometry x="520" y="450" width="80" height="80" as="geometry" />
        </mxCell>
        <mxCell id="sqvcQGN_Wg2t4Ckx61ED-9" value="SaveAble" style="ellipse;whiteSpace=wrap;html=1;aspect=fixed;" vertex="1" parent="1">
          <mxGeometry x="260" y="590" width="80" height="80" as="geometry" />
        </mxCell>
        <mxCell id="sqvcQGN_Wg2t4Ckx61ED-15" style="edgeStyle=none;rounded=0;orthogonalLoop=1;jettySize=auto;html=1;entryX=1;entryY=0.5;entryDx=0;entryDy=0;" edge="1" parent="1" source="sqvcQGN_Wg2t4Ckx61ED-10" target="sqvcQGN_Wg2t4Ckx61ED-9">
          <mxGeometry relative="1" as="geometry" />
        </mxCell>
        <mxCell id="sqvcQGN_Wg2t4Ckx61ED-10" value="Runtime" style="ellipse;whiteSpace=wrap;html=1;aspect=fixed;" vertex="1" parent="1">
          <mxGeometry x="400" y="590" width="80" height="80" as="geometry" />
        </mxCell>
        <mxCell id="sqvcQGN_Wg2t4Ckx61ED-12" style="edgeStyle=none;rounded=0;orthogonalLoop=1;jettySize=auto;html=1;entryX=0.438;entryY=0.088;entryDx=0;entryDy=0;entryPerimeter=0;" edge="1" parent="1" source="sqvcQGN_Wg2t4Ckx61ED-7" target="sqvcQGN_Wg2t4Ckx61ED-10">
          <mxGeometry relative="1" as="geometry" />
        </mxCell>
        <mxCell id="sqvcQGN_Wg2t4Ckx61ED-13" style="edgeStyle=none;rounded=0;orthogonalLoop=1;jettySize=auto;html=1;entryX=0.613;entryY=-0.037;entryDx=0;entryDy=0;entryPerimeter=0;" edge="1" parent="1" source="sqvcQGN_Wg2t4Ckx61ED-6" target="sqvcQGN_Wg2t4Ckx61ED-7">
          <mxGeometry relative="1" as="geometry" />
        </mxCell>
        <mxCell id="sqvcQGN_Wg2t4Ckx61ED-17" value="Code Logic" style="rounded=1;whiteSpace=wrap;html=1;" vertex="1" parent="1">
          <mxGeometry x="570" y="590" width="120" height="60" as="geometry" />
        </mxCell>
        <mxCell id="sqvcQGN_Wg2t4Ckx61ED-18" style="edgeStyle=none;rounded=0;orthogonalLoop=1;jettySize=auto;html=1;entryX=0.425;entryY=0.033;entryDx=0;entryDy=0;entryPerimeter=0;" edge="1" parent="1" source="sqvcQGN_Wg2t4Ckx61ED-8" target="sqvcQGN_Wg2t4Ckx61ED-17">
          <mxGeometry relative="1" as="geometry" />
        </mxCell>
      </root>
    </mxGraphModel>
  </diagram>
</mxfile>
